{"accessors":[{"bufferView":0,"byteOffset":0,"componentType":5126,"count":5,"max":[-0.052959000000000006,-0.01905,0.0016],"min":[-0.053975,-0.01905,0.0],"type":"VEC3"},{"bufferView":0,"byteOffset":60,"componentType":5126,"count":4,"max":[-0.052959000000000006,-0.01905,0.0],"min":[-0.05325,-0.02413,0.0],"type":"VEC3"},{"bufferView":0,"byteOffset":108,"componentType":5126,"count":5,"max":[-0.052959000000000006,-0.02413,0.0016],"min":[-0.053975,-0.02413,0.0],"type":"VEC3"},{"bufferView":0,"byteOffset":168,"componentType":5126,"count":4,"max":[-0.052959000000000006,-0.01905,0.0016],"min":[-0.052959000000000006,-0.02413,0.0],"type":"VEC3"},{"bufferView":0,"byteOffset":216,"componentType":5126,"count":460,"max":[0.06096,0.036576000000000004,0.0016],"min":[-0.06096,-0.036576000000000004,0.0016],"type":"VEC3"},{"bufferView":0,"byteOffset":5736,"componentType":5126,"count":28,"max":[0.059042962351135896,-0.031369,0.0016],"min":[0.057404000000000004,-0.034671,0.0],"type":"VEC3"},{"bufferView":0,"byteOffset":6072,"componentType":5126,"count":28,"max":[0.057404000000000004,-0.031369,0.0016],"min":[0.05576503764886412,-0.034671,0.0],"type":"VEC3"},{"bufferView":0,"byteOffset":6408,"componentType":5126,"count":348,"max":[0.06096,0.036576000000000004,0.0],"min":[-0.06096,-0.036576000000000004,0.0],"type":"VEC3"},{"bufferView":0,"byteOffset":10584,"componentType":5126,"count":28,"max":[-0.05576503764886412,-0.031369,0.0016],"min":[-0.057404000000000004,-0.034671,0.0],"type":"VEC3"},{"bufferView":0,"byteOffset":10920,"componentType":5126,"count":28,"max":[-0.057404000000000004,-0.031369,0.0016],"min":[-0.059042962351135896,-0.034671,0.0],"type":"VEC3"},{"bufferView":0,"byteOffset":11256,"componentType":5126,"count":28,"max":[-0.05576503764886412,0.034671,0.0016],"min":[-0.057404000000000004,0.031369,0.0],"type":"VEC3"},{"bufferView":0,"byteOffset":11592,"componentType":5126,"count":28,"max":[-0.057404000000000004,0.034671,0.0016],"min":[-0.059042962351135896,0.031369,0.0],"type":"VEC3"},{"bufferView":0,"byteOffset":11928,"componentType":5126,"count":28,"max":[0.05666184416206272,-0.005588,0.0016],"min":[0.0559054,-0.007112,0.0],"type":"VEC3"},{"bufferView":0,"byteOffset":12264,"componentType":5126,"count":28,"max":[0.0559054,-0.005588,0.0016],"min":[0.05514895583793728,-0.007112,0.0],"type":"VEC3"},{"bufferView":0,"byteOffset":12600,"componentType":5126,"count":28,"max":[0.05666184416206272,-0.003048,0.0016],"min":[0.0559054,-0.0045720000000000005,0.0],"type":"VEC3"},{"bufferView":0,"byteOffset":12936,"componentType":5126,"count":28,"max":[0.0559054,-0.003048,0.0016],"min":[0.05514895583793728,-0.0045720000000000005,0.0],"type":"VEC3"},{"bufferView":0,"byteOffset":13272,"componentType":5126,"count":28,"max":[0.056661844162062526,-0.0005080000000001999,0.0016],"min":[0.0559054,-0.002032,0.0],"type":"VEC3"},{"bufferView":0,"byteOffset":13608,"componentType":5126,"count":28,"max":[0.0559054,-0.0005080000000001999,0.0016],"min":[0.05514895583793748,-0.002032,0.0],"type":"VEC3"},{"bufferView":0,"byteOffset":13944,"componentType":5126,"count":28,"max":[0.05666184416206272,0.002032,0.0016],"min":[0.0559054,0.000508,0.0],"type":"VEC3"},{"bufferView":0,"byteOffset":14280,"componentType":5126,"count":28,"max":[0.0559054,0.002032,0.0016],"min":[0.05514895583793728,0.000508,0.0],"type":"VEC3"},{"bufferView":0,"byteOffset":14616,"componentType":5126,"count":28,"max":[0.05666184416206272,0.0045720000000000005,0.0016],"min":[0.0559054,0.003048,0.0],"type":"VEC3"},{"bufferView":0,"byteOffset":14952,"componentType":5126,"count":28,"max":[0.0559054,0.0045720000000000005,0.0016],"min":[0.05514895583793728,0.003048,0.0],"type":"VEC3"},{"bufferView":0,"byteOffset":15288,"componentType":5126,"count":28,"max":[0.05666184416206272,0.007112,0.0016],"min":[0.0559054,0.005588,0.0],"type":"VEC3"},{"bufferView":0,"byteOffset":15624,"componentType":5126,"count":28,"max":[0.0559054,0.007112,0.0016],"min":[0.05514895583793728,0.005588,0.0],"type":"VEC3"},{"bufferView":0,"byteOffset":15960,"componentType":5126,"count":28,"max":[0.059042962351135896,0.034671,0.0016],"min":[0.057404000000000004,0.031369,0.0],"type":"VEC3"},{"bufferView":0,"byteOffset":16296,"componentType":5126,"count":28,"max":[0.057404000000000004,0.034671,0.0016],"min":[0.05576503764886412,0.031369,0.0],"type":"VEC3"},{"bufferView":0,"byteOffset":16632,"componentType":5126,"count":5,"max":[0.003683,0.036576000000000004,0.0016],"min":[0.003683,0.033782,0.0],"type":"VEC3"},{"bufferView":0,"byteOffset":16692,"componentType":5126,"count":4,"max":[0.003683,0.036576000000000004,0.0016],"min":[-0.058420001897570004,0.036576000000000004,0.0],"type":"VEC3"},{"bufferView":0,"byteOffset":16740,"componentType":5126,"count":16,"max":[-0.058420001897570004,0.036576000000000004,0.0016],"min":[-0.06096,0.03403600189757,0.0],"type":"VEC3"},{"bufferView":0,"byteOffset":16932,"componentType":5126,"count":4,"max":[-0.06096,0.03403600189757,0.0016],"min":[-0.06096,0.018033999999999998,0.0],"type":"VEC3"},{"bufferView":0,"byteOffset":16980,"componentType":5126,"count":4,"max":[-0.056896,0.018033999999999998,0.0016],"min":[-0.06096,0.018033999999999998,0.0],"type":"VEC3"},{"bufferView":0,"byteOffset":17028,"componentType":5126,"count":4,"max":[-0.056896,0.018033999999999998,0.0016],"min":[-0.056896,0.0033020000000000002,0.0],"type":"VEC3"},{"bufferView":0,"byteOffset":17076,"componentType":5126,"count":4,"max":[-0.056896,0.0033020000000000002,0.0016],"min":[-0.06096,0.0033020000000000002,0.0],"type":"VEC3"},{"bufferView":0,"byteOffset":17124,"componentType":5126,"count":4,"max":[-0.06096,0.0033020000000000002,0.0016],"min":[-0.06096,-0.03403600189757,0.0],"type":"VEC3"},{"bufferView":0,"byteOffset":17172,"componentType":5126,"count":16,"max":[-0.058420001897570004,-0.03403600189757,0.0016],"min":[-0.06096,-0.036576000000000004,0.0],"type":"VEC3"},{"bufferView":0,"byteOffset":17364,"componentType":5126,"count":4,"max":[0.058420001897570004,-0.036576000000000004,0.0016],"min":[-0.058420001897570004,-0.036576000000000004,0.0],"type":"VEC3"},{"bufferView":0,"byteOffset":17412,"componentType":5126,"count":16,"max":[0.06096,-0.03403600189757,0.0016],"min":[0.058420001897570004,-0.036576000000000004,0.0],"type":"VEC3"},{"bufferView":0,"byteOffset":17604,"componentType":5126,"count":4,"max":[0.06096,0.03403600189757,0.0016],"min":[0.06096,-0.03403600189757,0.0],"type":"VEC3"},{"bufferView":0,"byteOffset":17652,"componentType":5126,"count":16,"max":[0.06096,0.036576000000000004,0.0016],"min":[0.058420001897570004,0.03403600189757,0.0],"type":"VEC3"},{"bufferView":0,"byteOffset":17844,"componentType":5126,"count":4,"max":[0.058420001897570004,0.036576000000000004,0.0016],"min":[0.029337000000000002,0.036576000000000004,0.0],"type":"VEC3"},{"bufferView":0,"byteOffset":17892,"componentType":5126,"count":5,"max":[0.029337000000000002,0.036576000000000004,0.0016],"min":[0.029337000000000002,0.033782,0.0],"type":"VEC3"},{"bufferView":0,"byteOffset":17952,"componentType":5126,"count":4,"max":[0.029337000000000002,0.033782,0.0016],"min":[0.003683,0.033782,0.0],"type":"VEC3"},{"bufferView":0,"byteOffset":18000,"componentType":5126,"count":4,"max":[0.029337000000000002,0.03415,0.0],"min":[0.003683,0.033782,0.0],"type":"VEC3"},{"bufferView":0,"byteOffset":18048,"componentType":5126,"count":12,"max":[0.05325,0.03415,0.0],"min":[-0.05325,0.03415,-0.005],"type":"VEC3"},{"bufferView":0,"byteOffset":18192,"componentType":5126,"count":4,"max":[0.00254,0.03415,0.0],"min":[-0.00254,0.033782,0.0],"type":"VEC3"},{"bufferView":0,"byteOffset":18240,"componentType":5126,"count":4,"max":[0.00254,0.033782,0.0016],"min":[-0.00254,0.033782,0.0],"type":"VEC3"},{"bufferView":0,"byteOffset":18288,"componentType":5126,"count":5,"max":[0.00254,0.034798,0.0016],"min":[0.00254,0.033782,0.0],"type":"VEC3"},{"bufferView":0,"byteOffset":18348,"componentType":5126,"count":4,"max":[0.00254,0.034798,0.0016],"min":[-0.00254,0.034798,0.0],"type":"VEC3"},{"bufferView":0,"byteOffset":18396,"componentType":5126,"count":5,"max":[-0.00254,0.034798,0.0016],"min":[-0.00254,0.033782,0.0],"type":"VEC3"},{"bufferView":0,"byteOffset":18456,"componentType":5126,"count":4,"max":[-0.03048,0.03415,0.0],"min":[-0.03556,0.033782,0.0],"type":"VEC3"},{"bufferView":0,"byteOffset":18504,"componentType":5126,"count":4,"max":[-0.03048,0.033782,0.0016],"min":[-0.03556,0.033782,0.0],"type":"VEC3"},{"bufferView":0,"byteOffset":18552,"componentType":5126,"count":5,"max":[-0.03048,0.034798,0.0016],"min":[-0.03048,0.033782,0.0],"type":"VEC3"},{"bufferView":0,"byteOffset":18612,"componentType":5126,"count":4,"max":[-0.03048,0.034798,0.0016],"min":[-0.03556,0.034798,0.0],"type":"VEC3"},{"bufferView":0,"byteOffset":18660,"componentType":5126,"count":5,"max":[-0.03556,0.034798,0.0016],"min":[-0.03556,0.033782,0.0],"type":"VEC3"},{"bufferView":0,"byteOffset":18720,"componentType":5126,"count":10,"max":[-0.05325,0.03415,0.0],"min":[-0.05325,-0.03415,-0.005],"type":"VEC3"},{"bufferView":0,"byteOffset":18840,"componentType":5126,"count":10,"max":[0.05325,-0.03415,0.0],"min":[-0.05325,-0.03415,-0.005],"type":"VEC3"},{"bufferView":0,"byteOffset":18960,"componentType":5126,"count":8,"max":[0.05325,0.03415,0.0],"min":[0.05325,-0.03415,-0.005],"type":"VEC3"},{"bufferView":0,"byteOffset":19056,"componentType":5126,"count":8,"max":[0.05325,0.03415,-0.005],"min":[-0.05325,-0.03415,-0.005],"type":"VEC3"},{"bufferView":0,"byteOffset":19152,"componentType":5126,"count":4,"max":[-0.049850000000000005,0.02625,-0.0046],"min":[-0.049850000000000005,-0.03125,-0.005],"type":"VEC3"},{"bufferView":0,"byteOffset":19200,"componentType":5126,"count":8,"max":[0.04955,0.02625,-0.0046],"min":[-0.049850000000000005,-0.03125,-0.0046],"type":"VEC3"},{"bufferView":0,"byteOffset":19296,"componentType":5126,"count":4,"max":[0.04955,-0.03125,-0.0046],"min":[-0.049850000000000005,-0.03125,-0.005],"type":"VEC3"},{"bufferView":0,"byteOffset":19344,"componentType":5126,"count":4,"max":[0.04955,0.02625,-0.0046],"min":[0.04955,-0.03125,-0.005],"type":"VEC3"},{"bufferView":0,"byteOffset":19392,"componentType":5126,"count":4,"max":[0.04955,0.02625,-0.0046],"min":[-0.049850000000000005,0.02625,-0.005],"type":"VEC3"},{"bufferView":0,"byteOffset":19440,"componentType":5126,"count":4,"max":[-0.0494,0.0258,-0.0044],"min":[-0.0494,-0.0308,-0.0046],"type":"VEC3"},{"bufferView":0,"byteOffset":19488,"componentType":5126,"count":4,"max":[0.0494,-0.0308,-0.0044],"min":[-0.0494,-0.0308,-0.0046],"type":"VEC3"},{"bufferView":0,"byteOffset":19536,"componentType":5126,"count":4,"max":[0.0494,0.0258,-0.0044],"min":[0.0494,-0.0308,-0.0046],"type":"VEC3"},{"bufferView":0,"byteOffset":19584,"componentType":5126,"count":4,"max":[0.0494,0.0258,-0.0044],"min":[-0.0494,0.0258,-0.0046],"type":"VEC3"},{"bufferView":0,"byteOffset":19632,"componentType":5126,"count":4,"max":[0.0494,0.0258,-0.0044],"min":[-0.0494,-0.0308,-0.0044],"type":"VEC3"},{"bufferView":0,"byteOffset":19680,"componentType":5126,"count":4,"max":[0.05325,-0.01905,0.0],"min":[0.052959000000000006,-0.02413,0.0],"type":"VEC3"},{"bufferView":0,"byteOffset":19728,"componentType":5126,"count":5,"max":[0.053975,-0.02413,0.0016],"min":[0.052959000000000006,-0.02413,0.0],"type":"VEC3"},{"bufferView":0,"byteOffset":19788,"componentType":5126,"count":4,"max":[0.053975,-0.01905,0.0016],"min":[0.053975,-0.02413,0.0],"type":"VEC3"},{"bufferView":0,"byteOffset":19836,"componentType":5126,"count":5,"max":[0.053975,-0.01905,0.0016],"min":[0.052959000000000006,-0.01905,0.0],"type":"VEC3"},{"bufferView":0,"byteOffset":19896,"componentType":5126,"count":4,"max":[0.052959000000000006,-0.01905,0.0016],"min":[0.052959000000000006,-0.02413,0.0],"type":"VEC3"},{"bufferView":0,"byteOffset":19944,"componentType":5126,"count":4,"max":[0.05325,0.02413,0.0],"min":[0.052959000000000006,0.01905,0.0],"type":"VEC3"},{"bufferView":0,"byteOffset":19992,"componentType":5126,"count":5,"max":[0.053975,0.01905,0.0016],"min":[0.052959000000000006,0.01905,0.0],"type":"VEC3"},{"bufferView":0,"byteOffset":20052,"componentType":5126,"count":4,"max":[0.053975,0.02413,0.0016],"min":[0.053975,0.01905,0.0],"type":"VEC3"},{"bufferView":0,"byteOffset":20100,"componentType":5126,"count":5,"max":[0.053975,0.02413,0.0016],"min":[0.052959000000000006,0.02413,0.0],"type":"VEC3"},{"bufferView":0,"byteOffset":20160,"componentType":5126,"count":4,"max":[0.052959000000000006,0.02413,0.0016],"min":[0.052959000000000006,0.01905,0.0],"type":"VEC3"},{"bufferView":0,"byteOffset":20208,"componentType":5126,"count":4,"max":[-0.03048,-0.033782,0.0],"min":[-0.03556,-0.03415,0.0],"type":"VEC3"},{"bufferView":0,"byteOffset":20256,"componentType":5126,"count":5,"max":[-0.03556,-0.033782,0.0016],"min":[-0.03556,-0.034798,0.0],"type":"VEC3"},{"bufferView":0,"byteOffset":20316,"componentType":5126,"count":4,"max":[-0.03048,-0.034798,0.0016],"min":[-0.03556,-0.034798,0.0],"type":"VEC3"},{"bufferView":0,"byteOffset":20364,"componentType":5126,"count":5,"max":[-0.03048,-0.033782,0.0016],"min":[-0.03048,-0.034798,0.0],"type":"VEC3"},{"bufferView":0,"byteOffset":20424,"componentType":5126,"count":4,"max":[-0.03048,-0.033782,0.0016],"min":[-0.03556,-0.033782,0.0],"type":"VEC3"},{"bufferView":0,"byteOffset":20472,"componentType":5126,"count":4,"max":[0.00254,-0.033782,0.0],"min":[-0.00254,-0.03415,0.0],"type":"VEC3"},{"bufferView":0,"byteOffset":20520,"componentType":5126,"count":5,"max":[-0.00254,-0.033782,0.0016],"min":[-0.00254,-0.034798,0.0],"type":"VEC3"},{"bufferView":0,"byteOffset":20580,"componentType":5126,"count":4,"max":[0.00254,-0.034798,0.0016],"min":[-0.00254,-0.034798,0.0],"type":"VEC3"},{"bufferView":0,"byteOffset":20628,"componentType":5126,"count":5,"max":[0.00254,-0.033782,0.0016],"min":[0.00254,-0.034798,0.0],"type":"VEC3"},{"bufferView":0,"byteOffset":20688,"componentType":5126,"count":4,"max":[0.00254,-0.033782,0.0016],"min":[-0.00254,-0.033782,0.0],"type":"VEC3"},{"bufferView":0,"byteOffset":20736,"componentType":5126,"count":4,"max":[0.03556,-0.033782,0.0],"min":[0.03048,-0.03415,0.0],"type":"VEC3"},{"bufferView":0,"byteOffset":20784,"componentType":5126,"count":5,"max":[0.03048,-0.033782,0.0016],"min":[0.03048,-0.034798,0.0],"type":"VEC3"},{"bufferView":0,"byteOffset":20844,"componentType":5126,"count":4,"max":[0.03556,-0.034798,0.0016],"min":[0.03048,-0.034798,0.0],"type":"VEC3"},{"bufferView":0,"byteOffset":20892,"componentType":5126,"count":5,"max":[0.03556,-0.033782,0.0016],"min":[0.03556,-0.034798,0.0],"type":"VEC3"},{"bufferView":0,"byteOffset":20952,"componentType":5126,"count":4,"max":[0.03556,-0.033782,0.0016],"min":[0.03048,-0.033782,0.0],"type":"VEC3"},{"bufferView":0,"byteOffset":21000,"componentType":5126,"count":4,"max":[-0.052959000000000006,0.02413,0.0],"min":[-0.05325,0.01905,0.0],"type":"VEC3"},{"bufferView":0,"byteOffset":21048,"componentType":5126,"count":5,"max":[-0.052959000000000006,0.01905,0.0016],"min":[-0.053975,0.01905,0.0],"type":"VEC3"},{"bufferView":0,"byteOffset":21108,"componentType":5126,"count":4,"max":[-0.052959000000000006,0.02413,0.0016],"min":[-0.052959000000000006,0.01905,0.0],"type":"VEC3"},{"bufferView":0,"byteOffset":21156,"componentType":5126,"count":5,"max":[-0.052959000000000006,0.02413,0.0016],"min":[-0.053975,0.02413,0.0],"type":"VEC3"},{"bufferView":0,"byteOffset":21216,"componentType":5126,"count":4,"max":[-0.053975,0.02413,0.0016],"min":[-0.053975,0.01905,0.0],"type":"VEC3"},{"bufferView":0,"byteOffset":21264,"componentType":5126,"count":4,"max":[-0.052959000000000006,0.00254,0.0],"min":[-0.05325,-0.00254,0.0],"type":"VEC3"},{"bufferView":0,"byteOffset":21312,"componentType":5126,"count":5,"max":[-0.052959000000000006,-0.00254,0.0016],"min":[-0.053975,-0.00254,0.0],"type":"VEC3"},{"bufferView":0,"byteOffset":21372,"componentType":5126,"count":4,"max":[-0.052959000000000006,0.00254,0.0016],"min":[-0.052959000000000006,-0.00254,0.0],"type":"VEC3"},{"bufferView":0,"byteOffset":21420,"componentType":5126,"count":5,"max":[-0.052959000000000006,0.00254,0.0016],"min":[-0.053975,0.00254,0.0],"type":"VEC3"},{"bufferView":0,"byteOffset":21480,"componentType":5126,"count":4,"max":[-0.053975,0.00254,0.0016],"min":[-0.053975,-0.00254,0.0],"type":"VEC3"},{"bufferView":0,"byteOffset":21528,"componentType":5126,"count":4,"max":[0.03556,0.03415,0.0],"min":[0.03048,0.033782,0.0],"type":"VEC3"},{"bufferView":0,"byteOffset":21576,"componentType":5126,"count":4,"max":[0.03556,0.033782,0.0016],"min":[0.03048,0.033782,0.0],"type":"VEC3"},{"bufferView":0,"byteOffset":21624,"componentType":5126,"count":5,"max":[0.03556,0.034798,0.0016],"min":[0.03556,0.033782,0.0],"type":"VEC3"},{"bufferView":0,"byteOffset":21684,"componentType":5126,"count":4,"max":[0.03556,0.034798,0.0016],"min":[0.03048,0.034798,0.0],"type":"VEC3"},{"bufferView":0,"byteOffset":21732,"componentType":5126,"count":5,"max":[0.03048,0.034798,0.0016],"min":[0.03048,0.033782,0.0],"type":"VEC3"},{"bufferView":0,"byteOffset":21792,"componentType":5126,"count":4,"max":[-0.053975,-0.01905,0.0016],"min":[-0.053975,-0.02413,0.0],"type":"VEC3"},{"bufferView":0,"byteOffset":21840,"componentType":5126,"count":4,"max":[-0.041021,0.018161,0.0036000000000000003],"min":[-0.041021,0.0034289999999999998,0.0016],"type":"VEC3"},{"bufferView":0,"byteOffset":21888,"componentType":5126,"count":4,"max":[-0.041021,0.0034289999999999998,0.0036000000000000003],"min":[-0.055880000000000006,0.0034289999999999998,0.0016],"type":"VEC3"},{"bufferView":0,"byteOffset":21936,"componentType":5126,"count":4,"max":[-0.055880000000000006,0.018161,0.0036000000000000003],"min":[-0.055880000000000006,0.0034289999999999998,0.0016],"type":"VEC3"},{"bufferView":0,"byteOffset":21984,"componentType":5126,"count":4,"max":[-0.041021,0.018161,0.0036000000000000003],"min":[-0.055880000000000006,0.018161,0.0016],"type":"VEC3"},{"bufferView":0,"byteOffset":22032,"componentType":5126,"count":4,"max":[-0.041021,0.018161,0.0036000000000000003],"min":[-0.055880000000000006,0.0034289999999999998,0.0036000000000000003],"type":"VEC3"},{"bufferView":0,"byteOffset":22080,"componentType":5126,"count":4,"max":[0.0452628,0.0072136,0.0036000000000000003],"min":[0.0391668,0.0072136,0.0016],"type":"VEC3"},{"bufferView":0,"byteOffset":22128,"componentType":5126,"count":4,"max":[0.0452628,0.0072136,0.0036000000000000003],"min":[0.0452628,-0.0070104,0.0016],"type":"VEC3"},{"bufferView":0,"byteOffset":22176,"componentType":5126,"count":4,"max":[0.0452628,-0.0070104,0.0036000000000000003],"min":[0.0391668,-0.0070104,0.0016],"type":"VEC3"},{"bufferView":0,"byteOffset":22224,"componentType":5126,"count":4,"max":[0.0391668,0.0072136,0.0036000000000000003],"min":[0.0391668,-0.0070104,0.0016],"type":"VEC3"},{"bufferView":0,"byteOffset":22272,"componentType":5126,"count":4,"max":[0.0452628,0.0072136,0.0036000000000000003],"min":[0.0391668,-0.0070104,0.0036000000000000003],"type":"VEC3"},{"bufferView":0,"byteOffset":22320,"componentType":5126,"count":28,"max":[-0.0330704,-0.0187579,0.0073],"min":[-0.0393704,-0.021884932953408872,0.0016],"type":"VEC3"},{"bufferView":0,"byteOffset":22656,"componentType":5126,"count":28,"max":[-0.0330704,-0.01563086704659113,0.0073],"min":[-0.0393704,-0.0187579,0.0016],"type":"VEC3"},{"bufferView":0,"byteOffset":22992,"componentType":5126,"count":26,"max":[-0.0330704,-0.01563086704659113,0.0073],"min":[-0.0393704,-0.021884932953408872,0.0073],"type":"VEC3"},{"bufferView":0,"byteOffset":23304,"componentType":5126,"count":4,"max":[0.0263398,0.0063119,0.006900000000000001],"min":[-0.0064262,0.0063119,0.0016],"type":"VEC3"},{"bufferView":0,"byteOffset":23352,"componentType":5126,"count":4,"max":[0.0263398,0.0063119,0.006900000000000001],"min":[0.0263398,-0.0281051,0.0016],"type":"VEC3"},{"bufferView":0,"byteOffset":23400,"componentType":5126,"count":4,"max":[0.0263398,-0.0281051,0.006900000000000001],"min":[-0.0064262,-0.0281051,0.0016],"type":"VEC3"},{"bufferView":0,"byteOffset":23448,"componentType":5126,"count":4,"max":[-0.0064262,0.0063119,0.006900000000000001],"min":[-0.0064262,-0.0281051,0.0016],"type":"VEC3"},{"bufferView":0,"byteOffset":23496,"componentType":5126,"count":4,"max":[0.0263398,0.0063119,0.006900000000000001],"min":[-0.0064262,-0.0281051,0.006900000000000001],"type":"VEC3"},{"bufferView":0,"byteOffset":23544,"componentType":5126,"count":28,"max":[0.060426600000000004,-0.0139192,0.0070999999999999995],"min":[0.0515366,-0.018331790945365856,0.0016],"type":"VEC3"},{"bufferView":0,"byteOffset":23880,"componentType":5126,"count":28,"max":[0.060426600000000004,-0.009506609054634144,0.0070999999999999995],"min":[0.0515366,-0.0139192,0.0016],"type":"VEC3"},{"bufferView":0,"byteOffset":24216,"componentType":5126,"count":26,"max":[0.060426600000000004,-0.009506609054634144,0.0070999999999999995],"min":[0.0515366,-0.018331790945365856,0.0070999999999999995],"type":"VEC3"},{"bufferView":0,"byteOffset":24528,"componentType":5126,"count":28,"max":[-0.007619600000000001,-0.021307767046591132,0.0073],"min":[-0.0139196,-0.0244348,0.0016],"type":"VEC3"},{"bufferView":0,"byteOffset":24864,"componentType":5126,"count":28,"max":[-0.007619600000000001,-0.0244348,0.0073],"min":[-0.0139196,-0.027561832953408867,0.0016],"type":"VEC3"},{"bufferView":0,"byteOffset":25200,"componentType":5126,"count":26,"max":[-0.007619600000000001,-0.021307767046591132,0.0073],"min":[-0.0139196,-0.027561832953408867,0.0073],"type":"VEC3"},{"bufferView":0,"byteOffset":25512,"componentType":5126,"count":26,"max":[0.0452378,0.01883693295340887,0.0073],"min":[0.0389378,0.01258286704659113,0.0073],"type":"VEC3"},{"bufferView":0,"byteOffset":25824,"componentType":5126,"count":28,"max":[0.0452378,0.01883693295340887,0.0073],"min":[0.0389378,0.0157099,0.0016],"type":"VEC3"},{"bufferView":0,"byteOffset":26160,"componentType":5126,"count":28,"max":[0.0452378,0.0157099,0.0073],"min":[0.0389378,0.01258286704659113,0.0016],"type":"VEC3"},{"bufferView":0,"byteOffset":26496,"componentType":5126,"count":4,"max":[0.05275,0.033600000000000005,-0.0016],"min":[-0.05275,-0.033600000000000005,-0.0016],"type":"VEC3"},{"bufferView":0,"byteOffset":26544,"componentType":5126,"count":4,"max":[-0.05275,0.033600000000000005,-0.0016],"min":[-0.05275,-0.033600000000000005,-0.0046],"type":"VEC3"},{"bufferView":0,"byteOffset":26592,"componentType":5126,"count":8,"max":[0.05285,0.03375,-0.0046],"min":[-0.05285,-0.03375,-0.0046],"type":"VEC3"},{"bufferView":0,"byteOffset":26688,"componentType":5126,"count":4,"max":[-0.05285,0.03375,0.0],"min":[-0.05285,-0.03375,-0.0046],"type":"VEC3"},{"bufferView":0,"byteOffset":26736,"componentType":5126,"count":4,"max":[0.05285,0.03375,0.0],"min":[-0.05285,-0.03375,0.0],"type":"VEC3"},{"bufferView":0,"byteOffset":26784,"componentType":5126,"count":4,"max":[0.05285,0.03375,0.0],"min":[-0.05285,0.03375,-0.0046],"type":"VEC3"},{"bufferView":0,"byteOffset":26832,"componentType":5126,"count":4,"max":[0.05285,0.03375,0.0],"min":[0.05285,-0.03375,-0.0046],"type":"VEC3"},{"bufferView":0,"byteOffset":26880,"componentType":5126,"count":4,"max":[0.05285,-0.03375,0.0],"min":[-0.05285,-0.03375,-0.0046],"type":"VEC3"},{"bufferView":0,"byteOffset":26928,"componentType":5126,"count":4,"max":[0.05275,0.033600000000000005,-0.0016],"min":[-0.05275,0.033600000000000005,-0.0046],"type":"VEC3"},{"bufferView":0,"byteOffset":26976,"componentType":5126,"count":4,"max":[0.05275,0.033600000000000005,-0.0016],"min":[0.05275,-0.033600000000000005,-0.0046],"type":"VEC3"},{"bufferView":0,"byteOffset":27024,"componentType":5126,"count":4,"max":[0.05275,-0.033600000000000005,-0.0016],"min":[-0.05275,-0.033600000000000005,-0.0046],"type":"VEC3"},{"bufferView":1,"byteOffset":0,"componentType":5126,"count":5,"type":"VEC3"},{"bufferView":1,"byteOffset":60,"componentType":5126,"count":4,"type":"VEC3"},{"bufferView":1,"byteOffset":108,"componentType":5126,"count":5,"type":"VEC3"},{"bufferView":1,"byteOffset":168,"componentType":5126,"count":4,"type":"VEC3"},{"bufferView":1,"byteOffset":216,"componentType":5126,"count":460,"type":"VEC3"},{"bufferView":1,"byteOffset":5736,"componentType":5126,"count":28,"type":"VEC3"},{"bufferView":1,"byteOffset":6072,"componentType":5126,"count":28,"type":"VEC3"},{"bufferView":1,"byteOffset":6408,"componentType":5126,"count":348,"type":"VEC3"},{"bufferView":1,"byteOffset":10584,"componentType":5126,"count":28,"type":"VEC3"},{"bufferView":1,"byteOffset":10920,"componentType":5126,"count":28,"type":"VEC3"},{"bufferView":1,"byteOffset":11256,"componentType":5126,"count":28,"type":"VEC3"},{"bufferView":1,"byteOffset":11592,"componentType":5126,"count":28,"type":"VEC3"},{"bufferView":1,"byteOffset":11928,"componentType":5126,"count":28,"type":"VEC3"},{"bufferView":1,"byteOffset":12264,"componentType":5126,"count":28,"type":"VEC3"},{"bufferView":1,"byteOffset":12600,"componentType":5126,"count":28,"type":"VEC3"},{"bufferView":1,"byteOffset":12936,"componentType":5126,"count":28,"type":"VEC3"},{"bufferView":1,"byteOffset":13272,"componentType":5126,"count":28,"type":"VEC3"},{"bufferView":1,"byteOffset":13608,"componentType":5126,"count":28,"type":"VEC3"},{"bufferView":1,"byteOffset":13944,"componentType":5126,"count":28,"type":"VEC3"},{"bufferView":1,"byteOffset":14280,"componentType":5126,"count":28,"type":"VEC3"},{"bufferView":1,"byteOffset":14616,"componentType":5126,"count":28,"type":"VEC3"},{"bufferView":1,"byteOffset":14952,"componentType":5126,"count":28,"type":"VEC3"},{"bufferView":1,"byteOffset":15288,"componentType":5126,"count":28,"type":"VEC3"},{"bufferView":1,"byteOffset":15624,"componentType":5126,"count":28,"type":"VEC3"},{"bufferView":1,"byteOffset":15960,"componentType":5126,"count":28,"type":"VEC3"},{"bufferView":1,"byteOffset":16296,"componentType":5126,"count":28,"type":"VEC3"},{"bufferView":1,"byteOffset":16632,"componentType":5126,"count":5,"type":"VEC3"},{"bufferView":1,"byteOffset":16692,"componentType":5126,"count":4,"type":"VEC3"},{"bufferView":1,"byteOffset":16740,"componentType":5126,"count":16,"type":"VEC3"},{"bufferView":1,"byteOffset":16932,"componentType":5126,"count":4,"type":"VEC3"},{"bufferView":1,"byteOffset":16980,"componentType":5126,"count":4,"type":"VEC3"},{"bufferView":1,"byteOffset":17028,"componentType":5126,"count":4,"type":"VEC3"},{"bufferView":1,"byteOffset":17076,"componentType":5126,"count":4,"type":"VEC3"},{"bufferView":1,"byteOffset":17124,"componentType":5126,"count":4,"type":"VEC3"},{"bufferView":1,"byteOffset":17172,"componentType":5126,"count":16,"type":"VEC3"},{"bufferView":1,"byteOffset":17364,"componentType":5126,"count":4,"type":"VEC3"},{"bufferView":1,"byteOffset":17412,"componentType":5126,"count":16,"type":"VEC3"},{"bufferView":1,"byteOffset":17604,"componentType":5126,"count":4,"type":"VEC3"},{"bufferView":1,"byteOffset":17652,"componentType":5126,"count":16,"type":"VEC3"},{"bufferView":1,"byteOffset":17844,"componentType":5126,"count":4,"type":"VEC3"},{"bufferView":1,"byteOffset":17892,"componentType":5126,"count":5,"type":"VEC3"},{"bufferView":1,"byteOffset":17952,"componentType":5126,"count":4,"type":"VEC3"},{"bufferView":1,"byteOffset":18000,"componentType":5126,"count":4,"type":"VEC3"},{"bufferView":1,"byteOffset":18048,"componentType":5126,"count":12,"type":"VEC3"},{"bufferView":1,"byteOffset":18192,"componentType":5126,"count":4,"type":"VEC3"},{"bufferView":1,"byteOffset":18240,"componentType":5126,"count":4,"type":"VEC3"},{"bufferView":1,"byteOffset":18288,"componentType":5126,"count":5,"type":"VEC3"},{"bufferView":1,"byteOffset":18348,"componentType":5126,"count":4,"type":"VEC3"},{"bufferView":1,"byteOffset":18396,"componentType":5126,"count":5,"type":"VEC3"},{"bufferView":1,"byteOffset":18456,"componentType":5126,"count":4,"type":"VEC3"},{"bufferView":1,"byteOffset":18504,"componentType":5126,"count":4,"type":"VEC3"},{"bufferView":1,"byteOffset":18552,"componentType":5126,"count":5,"type":"VEC3"},{"bufferView":1,"byteOffset":18612,"componentType":5126,"count":4,"type":"VEC3"},{"bufferView":1,"byteOffset":18660,"componentType":5126,"count":5,"type":"VEC3"},{"bufferView":1,"byteOffset":18720,"componentType":5126,"count":10,"type":"VEC3"},{"bufferView":1,"byteOffset":18840,"componentType":5126,"count":10,"type":"VEC3"},{"bufferView":1,"byteOffset":18960,"componentType":5126,"count":8,"type":"VEC3"},{"bufferView":1,"byteOffset":19056,"componentType":5126,"count":8,"type":"VEC3"},{"bufferView":1,"byteOffset":19152,"componentType":5126,"count":4,"type":"VEC3"},{"bufferView":1,"byteOffset":19200,"componentType":5126,"count":8,"type":"VEC3"},{"bufferView":1,"byteOffset":19296,"componentType":5126,"count":4,"type":"VEC3"},{"bufferView":1,"byteOffset":19344,"componentType":5126,"count":4,"type":"VEC3"},{"bufferView":1,"byteOffset":19392,"componentType":5126,"count":4,"type":"VEC3"},{"bufferView":1,"byteOffset":19440,"componentType":5126,"count":4,"type":"VEC3"},{"bufferView":1,"byteOffset":19488,"componentType":5126,"count":4,"type":"VEC3"},{"bufferView":1,"byteOffset":19536,"componentType":5126,"count":4,"type":"VEC3"},{"bufferView":1,"byteOffset":19584,"componentType":5126,"count":4,"type":"VEC3"},{"bufferView":1,"byteOffset":19632,"componentType":5126,"count":4,"type":"VEC3"},{"bufferView":1,"byteOffset":19680,"componentType":5126,"count":4,"type":"VEC3"},{"bufferView":1,"byteOffset":19728,"componentType":5126,"count":5,"type":"VEC3"},{"bufferView":1,"byteOffset":19788,"componentType":5126,"count":4,"type":"VEC3"},{"bufferView":1,"byteOffset":19836,"componentType":5126,"count":5,"type":"VEC3"},{"bufferView":1,"byteOffset":19896,"componentType":5126,"count":4,"type":"VEC3"},{"bufferView":1,"byteOffset":19944,"componentType":5126,"count":4,"type":"VEC3"},{"bufferView":1,"byteOffset":19992,"componentType":5126,"count":5,"type":"VEC3"},{"bufferView":1,"byteOffset":20052,"componentType":5126,"count":4,"type":"VEC3"},{"bufferView":1,"byteOffset":20100,"componentType":5126,"count":5,"type":"VEC3"},{"bufferView":1,"byteOffset":20160,"componentType":5126,"count":4,"type":"VEC3"},{"bufferView":1,"byteOffset":20208,"componentType":5126,"count":4,"type":"VEC3"},{"bufferView":1,"byteOffset":20256,"componentType":5126,"count":5,"type":"VEC3"},{"bufferView":1,"byteOffset":20316,"componentType":5126,"count":4,"type":"VEC3"},{"bufferView":1,"byteOffset":20364,"componentType":5126,"count":5,"type":"VEC3"},{"bufferView":1,"byteOffset":20424,"componentType":5126,"count":4,"type":"VEC3"},{"bufferView":1,"byteOffset":20472,"componentType":5126,"count":4,"type":"VEC3"},{"bufferView":1,"byteOffset":20520,"componentType":5126,"count":5,"type":"VEC3"},{"bufferView":1,"byteOffset":20580,"componentType":5126,"count":4,"type":"VEC3"},{"bufferView":1,"byteOffset":20628,"componentType":5126,"count":5,"type":"VEC3"},{"bufferView":1,"byteOffset":20688,"componentType":5126,"count":4,"type":"VEC3"},{"bufferView":1,"byteOffset":20736,"componentType":5126,"count":4,"type":"VEC3"},{"bufferView":1,"byteOffset":20784,"componentType":5126,"count":5,"type":"VEC3"},{"bufferView":1,"byteOffset":20844,"componentType":5126,"count":4,"type":"VEC3"},{"bufferView":1,"byteOffset":20892,"componentType":5126,"count":5,"type":"VEC3"},{"bufferView":1,"byteOffset":20952,"componentType":5126,"count":4,"type":"VEC3"},{"bufferView":1,"byteOffset":21000,"componentType":5126,"count":4,"type":"VEC3"},{"bufferView":1,"byteOffset":21048,"componentType":5126,"count":5,"type":"VEC3"},{"bufferView":1,"byteOffset":21108,"componentType":5126,"count":4,"type":"VEC3"},{"bufferView":1,"byteOffset":21156,"componentType":5126,"count":5,"type":"VEC3"},{"bufferView":1,"byteOffset":21216,"componentType":5126,"count":4,"type":"VEC3"},{"bufferView":1,"byteOffset":21264,"componentType":5126,"count":4,"type":"VEC3"},{"bufferView":1,"byteOffset":21312,"componentType":5126,"count":5,"type":"VEC3"},{"bufferView":1,"byteOffset":21372,"componentType":5126,"count":4,"type":"VEC3"},{"bufferView":1,"byteOffset":21420,"componentType":5126,"count":5,"type":"VEC3"},{"bufferView":1,"byteOffset":21480,"componentType":5126,"count":4,"type":"VEC3"},{"bufferView":1,"byteOffset":21528,"componentType":5126,"count":4,"type":"VEC3"},{"bufferView":1,"byteOffset":21576,"componentType":5126,"count":4,"type":"VEC3"},{"bufferView":1,"byteOffset":21624,"componentType":5126,"count":5,"type":"VEC3"},{"bufferView":1,"byteOffset":21684,"componentType":5126,"count":4,"type":"VEC3"},{"bufferView":1,"byteOffset":21732,"componentType":5126,"count":5,"type":"VEC3"},{"bufferView":1,"byteOffset":21792,"componentType":5126,"count":4,"type":"VEC3"},{"bufferView":1,"byteOffset":21840,"componentType":5126,"count":4,"type":"VEC3"},{"bufferView":1,"byteOffset":21888,"componentType":5126,"count":4,"type":"VEC3"},{"bufferView":1,"byteOffset":21936,"componentType":5126,"count":4,"type":"VEC3"},{"bufferView":1,"byteOffset":21984,"componentType":5126,"count":4,"type":"VEC3"},{"bufferView":1,"byteOffset":22032,"componentType":5126,"count":4,"type":"VEC3"},{"bufferView":1,"byteOffset":22080,"componentType":5126,"count":4,"type":"VEC3"},{"bufferView":1,"byteOffset":22128,"componentType":5126,"count":4,"type":"VEC3"},{"bufferView":1,"byteOffset":22176,"componentType":5126,"count":4,"type":"VEC3"},{"bufferView":1,"byteOffset":22224,"componentType":5126,"count":4,"type":"VEC3"},{"bufferView":1,"byteOffset":22272,"componentType":5126,"count":4,"type":"VEC3"},{"bufferView":1,"byteOffset":22320,"componentType":5126,"count":28,"type":"VEC3"},{"bufferView":1,"byteOffset":22656,"componentType":5126,"count":28,"type":"VEC3"},{"bufferView":1,"byteOffset":22992,"componentType":5126,"count":26,"type":"VEC3"},{"bufferView":1,"byteOffset":23304,"componentType":5126,"count":4,"type":"VEC3"},{"bufferView":1,"byteOffset":23352,"componentType":5126,"count":4,"type":"VEC3"},{"bufferView":1,"byteOffset":23400,"componentType":5126,"count":4,"type":"VEC3"},{"bufferView":1,"byteOffset":23448,"componentType":5126,"count":4,"type":"VEC3"},{"bufferView":1,"byteOffset":23496,"componentType":5126,"count":4,"type":"VEC3"},{"bufferView":1,"byteOffset":23544,"componentType":5126,"count":28,"type":"VEC3"},{"bufferView":1,"byteOffset":23880,"componentType":5126,"count":28,"type":"VEC3"},{"bufferView":1,"byteOffset":24216,"componentType":5126,"count":26,"type":"VEC3"},{"bufferView":1,"byteOffset":24528,"componentType":5126,"count":28,"type":"VEC3"},{"bufferView":1,"byteOffset":24864,"componentType":5126,"count":28,"type":"VEC3"},{"bufferView":1,"byteOffset":25200,"componentType":5126,"count":26,"type":"VEC3"},{"bufferView":1,"byteOffset":25512,"componentType":5126,"count":26,"type":"VEC3"},{"bufferView":1,"byteOffset":25824,"componentType":5126,"count":28,"type":"VEC3"},{"bufferView":1,"byteOffset":26160,"componentType":5126,"count":28,"type":"VEC3"},{"bufferView":1,"byteOffset":26496,"componentType":5126,"count":4,"type":"VEC3"},{"bufferView":1,"byteOffset":26544,"componentType":5126,"count":4,"type":"VEC3"},{"bufferView":1,"byteOffset":26592,"componentType":5126,"count":8,"type":"VEC3"},{"bufferView":1,"byteOffset":26688,"componentType":5126,"count":4,"type":"VEC3"},{"bufferView":1,"byteOffset":26736,"componentType":5126,"count":4,"type":"VEC3"},{"bufferView":1,"byteOffset":26784,"componentType":5126,"count":4,"type":"VEC3"},{"bufferView":1,"byteOffset":26832,"componentType":5126,"count":4,"type":"VEC3"},{"bufferView":1,"byteOffset":26880,"componentType":5126,"count":4,"type":"VEC3"},{"bufferView":1,"byteOffset":26928,"componentType":5126,"count":4,"type":"VEC3"},{"bufferView":1,"byteOffset":26976,"componentType":5126,"count":4,"type":"VEC3"},{"bufferView":1,"byteOffset":27024,"componentType":5126,"count":4,"type":"VEC3"},{"bufferView":2,"byteOffset":0,"componentType":5123,"count":9,"type":"SCALAR"},{"bufferView":2,"byteOffset":20,"componentType":5123,"count":6,"type":"SCALAR"},{"bufferView":2,"byteOffset":32,"componentType":5123,"count":9,"type":"SCALAR"},{"bufferView":2,"byteOffset":52,"componentType":5123,"count":6,"type":"SCALAR"},{"bufferView":2,"byteOffset":64,"componentType":5123,"count":1542,"type":"SCALAR"},{"bufferView":2,"byteOffset":3148,"componentType":5123,"count":78,"type":"SCALAR"},{"bufferView":2,"byteOffset":3304,"componentType":5123,"count":78,"type":"SCALAR"},{"bufferView":2,"byteOffset":3460,"componentType":5123,"count":1098,"type":"SCALAR"},{"bufferView":2,"byteOffset":5656,"componentType":5123,"count":78,"type":"SCALAR"},{"bufferView":2,"byteOffset":5812,"componentType":5123,"count":78,"type":"SCALAR"},{"bufferView":2,"byteOffset":5968,"componentType":5123,"count":78,"type":"SCALAR"},{"bufferView":2,"byteOffset":6124,"componentType":5123,"count":78,"type":"SCALAR"},{"bufferView":2,"byteOffset":6280,"componentType":5123,"count":78,"type":"SCALAR"},{"bufferView":2,"byteOffset":6436,"componentType":5123,"count":78,"type":"SCALAR"},{"bufferView":2,"byteOffset":6592,"componentType":5123,"count":78,"type":"SCALAR"},{"bufferView":2,"byteOffset":6748,"componentType":5123,"count":78,"type":"SCALAR"},{"bufferView":2,"byteOffset":6904,"componentType":5123,"count":78,"type":"SCALAR"},{"bufferView":2,"byteOffset":7060,"componentType":5123,"count":78,"type":"SCALAR"},{"bufferView":2,"byteOffset":7216,"componentType":5123,"count":78,"type":"SCALAR"},{"bufferView":2,"byteOffset":7372,"componentType":5123,"count":78,"type":"SCALAR"},{"bufferView":2,"byteOffset":7528,"componentType":5123,"count":78,"type":"SCALAR"},{"bufferView":2,"byteOffset":7684,"componentType":5123,"count":78,"type":"SCALAR"},{"bufferView":2,"byteOffset":7840,"componentType":5123,"count":78,"type":"SCALAR"},{"bufferView":2,"byteOffset":7996,"componentType":5123,"count":78,"type":"SCALAR"},{"bufferView":2,"byteOffset":8152,"componentType":5123,"count":78,"type":"SCALAR"},{"bufferView":2,"byteOffset":8308,"componentType":5123,"count":78,"type":"SCALAR"},{"bufferView":2,"byteOffset":8464,"componentType":5123,"count":9,"type":"SCALAR"},{"bufferView":2,"byteOffset":8484,"componentType":5123,"count":6,"type":"SCALAR"},{"bufferView":2,"byteOffset":8496,"componentType":5123,"count":42,"type":"SCALAR"},{"bufferView":2,"byteOffset":8580,"componentType":5123,"count":6,"type":"SCALAR"},{"bufferView":2,"byteOffset":8592,"componentType":5123,"count":6,"type":"SCALAR"},{"bufferView":2,"byteOffset":8604,"componentType":5123,"count":6,"type":"SCALAR"},{"bufferView":2,"byteOffset":8616,"componentType":5123,"count":6,"type":"SCALAR"},{"bufferView":2,"byteOffset":8628,"componentType":5123,"count":6,"type":"SCALAR"},{"bufferView":2,"byteOffset":8640,"componentType":5123,"count":42,"type":"SCALAR"},{"bufferView":2,"byteOffset":8724,"componentType":5123,"count":6,"type":"SCALAR"},{"bufferView":2,"byteOffset":8736,"componentType":5123,"count":42,"type":"SCALAR"},{"bufferView":2,"byteOffset":8820,"componentType":5123,"count":6,"type":"SCALAR"},{"bufferView":2,"byteOffset":8832,"componentType":5123,"count":42,"type":"SCALAR"},{"bufferView":2,"byteOffset":8916,"componentType":5123,"count":6,"type":"SCALAR"},{"bufferView":2,"byteOffset":8928,"componentType":5123,"count":9,"type":"SCALAR"},{"bufferView":2,"byteOffset":8948,"componentType":5123,"count":6,"type":"SCALAR"},{"bufferView":2,"byteOffset":8960,"componentType":5123,"count":6,"type":"SCALAR"},{"bufferView":2,"byteOffset":8972,"componentType":5123,"count":30,"type":"SCALAR"},{"bufferView":2,"byteOffset":9032,"componentType":5123,"count":6,"type":"SCALAR"},{"bufferView":2,"byteOffset":9044,"componentType":5123,"count":6,"type":"SCALAR"},{"bufferView":2,"byteOffset":9056,"componentType":5123,"count":9,"type":"SCALAR"},{"bufferView":2,"byteOffset":9076,"componentType":5123,"count":6,"type":"SCALAR"},{"bufferView":2,"byteOffset":9088,"componentType":5123,"count":9,"type":"SCALAR"},{"bufferView":2,"byteOffset":9108,"componentType":5123,"count":6,"type":"SCALAR"},{"bufferView":2,"byteOffset":9120,"componentType":5123,"count":6,"type":"SCALAR"},{"bufferView":2,"byteOffset":9132,"componentType":5123,"count":9,"type":"SCALAR"},{"bufferView":2,"byteOffset":9152,"componentType":5123,"count":6,"type":"SCALAR"},{"bufferView":2,"byteOffset":9164,"componentType":5123,"count":9,"type":"SCALAR"},{"bufferView":2,"byteOffset":9184,"componentType":5123,"count":24,"type":"SCALAR"},{"bufferView":2,"byteOffset":9232,"componentType":5123,"count":24,"type":"SCALAR"},{"bufferView":2,"byteOffset":9280,"componentType":5123,"count":18,"type":"SCALAR"},{"bufferView":2,"byteOffset":9316,"componentType":5123,"count":24,"type":"SCALAR"},{"bufferView":2,"byteOffset":9364,"componentType":5123,"count":6,"type":"SCALAR"},{"bufferView":2,"byteOffset":9376,"componentType":5123,"count":24,"type":"SCALAR"},{"bufferView":2,"byteOffset":9424,"componentType":5123,"count":6,"type":"SCALAR"},{"bufferView":2,"byteOffset":9436,"componentType":5123,"count":6,"type":"SCALAR"},{"bufferView":2,"byteOffset":9448,"componentType":5123,"count":6,"type":"SCALAR"},{"bufferView":2,"byteOffset":9460,"componentType":5123,"count":6,"type":"SCALAR"},{"bufferView":2,"byteOffset":9472,"componentType":5123,"count":6,"type":"SCALAR"},{"bufferView":2,"byteOffset":9484,"componentType":5123,"count":6,"type":"SCALAR"},{"bufferView":2,"byteOffset":9496,"componentType":5123,"count":6,"type":"SCALAR"},{"bufferView":2,"byteOffset":9508,"componentType":5123,"count":6,"type":"SCALAR"},{"bufferView":2,"byteOffset":9520,"componentType":5123,"count":6,"type":"SCALAR"},{"bufferView":2,"byteOffset":9532,"componentType":5123,"count":9,"type":"SCALAR"},{"bufferView":2,"byteOffset":9552,"componentType":5123,"count":6,"type":"SCALAR"},{"bufferView":2,"byteOffset":9564,"componentType":5123,"count":9,"type":"SCALAR"},{"bufferView":2,"byteOffset":9584,"componentType":5123,"count":6,"type":"SCALAR"},{"bufferView":2,"byteOffset":9596,"componentType":5123,"count":6,"type":"SCALAR"},{"bufferView":2,"byteOffset":9608,"componentType":5123,"count":9,"type":"SCALAR"},{"bufferView":2,"byteOffset":9628,"componentType":5123,"count":6,"type":"SCALAR"},{"bufferView":2,"byteOffset":9640,"componentType":5123,"count":9,"type":"SCALAR"},{"bufferView":2,"byteOffset":9660,"componentType":5123,"count":6,"type":"SCALAR"},{"bufferView":2,"byteOffset":9672,"componentType":5123,"count":6,"type":"SCALAR"},{"bufferView":2,"byteOffset":9684,"componentType":5123,"count":9,"type":"SCALAR"},{"bufferView":2,"byteOffset":9704,"componentType":5123,"count":6,"type":"SCALAR"},{"bufferView":2,"byteOffset":9716,"componentType":5123,"count":9,"type":"SCALAR"},{"bufferView":2,"byteOffset":9736,"componentType":5123,"count":6,"type":"SCALAR"},{"bufferView":2,"byteOffset":9748,"componentType":5123,"count":6,"type":"SCALAR"},{"bufferView":2,"byteOffset":9760,"componentType":5123,"count":9,"type":"SCALAR"},{"bufferView":2,"byteOffset":9780,"componentType":5123,"count":6,"type":"SCALAR"},{"bufferView":2,"byteOffset":9792,"componentType":5123,"count":9,"type":"SCALAR"},{"bufferView":2,"byteOffset":9812,"componentType":5123,"count":6,"type":"SCALAR"},{"bufferView":2,"byteOffset":9824,"componentType":5123,"count":6,"type":"SCALAR"},{"bufferView":2,"byteOffset":9836,"componentType":5123,"count":9,"type":"SCALAR"},{"bufferView":2,"byteOffset":9856,"componentType":5123,"count":6,"type":"SCALAR"},{"bufferView":2,"byteOffset":9868,"componentType":5123,"count":9,"type":"SCALAR"},{"bufferView":2,"byteOffset":9888,"componentType":5123,"count":6,"type":"SCALAR"},{"bufferView":2,"byteOffset":9900,"componentType":5123,"count":6,"type":"SCALAR"},{"bufferView":2,"byteOffset":9912,"componentType":5123,"count":9,"type":"SCALAR"},{"bufferView":2,"byteOffset":9932,"componentType":5123,"count":6,"type":"SCALAR"},{"bufferView":2,"byteOffset":9944,"componentType":5123,"count":9,"type":"SCALAR"},{"bufferView":2,"byteOffset":9964,"componentType":5123,"count":6,"type":"SCALAR"},{"bufferView":2,"byteOffset":9976,"componentType":5123,"count":6,"type":"SCALAR"},{"bufferView":2,"byteOffset":9988,"componentType":5123,"count":9,"type":"SCALAR"},{"bufferView":2,"byteOffset":10008,"componentType":5123,"count":6,"type":"SCALAR"},{"bufferView":2,"byteOffset":10020,"componentType":5123,"count":9,"type":"SCALAR"},{"bufferView":2,"byteOffset":10040,"componentType":5123,"count":6,"type":"SCALAR"},{"bufferView":2,"byteOffset":10052,"componentType":5123,"count":6,"type":"SCALAR"},{"bufferView":2,"byteOffset":10064,"componentType":5123,"count":6,"type":"SCALAR"},{"bufferView":2,"byteOffset":10076,"componentType":5123,"count":9,"type":"SCALAR"},{"bufferView":2,"byteOffset":10096,"componentType":5123,"count":6,"type":"SCALAR"},{"bufferView":2,"byteOffset":10108,"componentType":5123,"count":9,"type":"SCALAR"},{"bufferView":2,"byteOffset":10128,"componentType":5123,"count":6,"type":"SCALAR"},{"bufferView":2,"byteOffset":10140,"componentType":5123,"count":6,"type":"SCALAR"},{"bufferView":2,"byteOffset":10152,"componentType":5123,"count":6,"type":"SCALAR"},{"bufferView":2,"byteOffset":10164,"componentType":5123,"count":6,"type":"SCALAR"},{"bufferView":2,"byteOffset":10176,"componentType":5123,"count":6,"type":"SCALAR"},{"bufferView":2,"byteOffset":10188,"componentType":5123,"count":6,"type":"SCALAR"},{"bufferView":2,"byteOffset":10200,"componentType":5123,"count":6,"type":"SCALAR"},{"bufferView":2,"byteOffset":10212,"componentType":5123,"count":6,"type":"SCALAR"},{"bufferView":2,"byteOffset":10224,"componentType":5123,"count":6,"type":"SCALAR"},{"bufferView":2,"byteOffset":10236,"componentType":5123,"count":6,"type":"SCALAR"},{"bufferView":2,"byteOffset":10248,"componentType":5123,"count":6,"type":"SCALAR"},{"bufferView":2,"byteOffset":10260,"componentType":5123,"count":78,"type":"SCALAR"},{"bufferView":2,"byteOffset":10416,"componentType":5123,"count":78,"type":"SCALAR"},{"bufferView":2,"byteOffset":10572,"componentType":5123,"count":72,"type":"SCALAR"},{"bufferView":2,"byteOffset":10716,"componentType":5123,"count":6,"type":"SCALAR"},{"bufferView":2,"byteOffset":10728,"componentType":5123,"count":6,"type":"SCALAR"},{"bufferView":2,"byteOffset":10740,"componentType":5123,"count":6,"type":"SCALAR"},{"bufferView":2,"byteOffset":10752,"componentType":5123,"count":6,"type":"SCALAR"},{"bufferView":2,"byteOffset":10764,"componentType":5123,"count":6,"type":"SCALAR"},{"bufferView":2,"byteOffset":10776,"componentType":5123,"count":78,"type":"SCALAR"},{"bufferView":2,"byteOffset":10932,"componentType":5123,"count":78,"type":"SCALAR"},{"bufferView":2,"byteOffset":11088,"componentType":5123,"count":72,"type":"SCALAR"},{"bufferView":2,"byteOffset":11232,"componentType":5123,"count":78,"type":"SCALAR"},{"bufferView":2,"byteOffset":11388,"componentType":5123,"count":78,"type":"SCALAR"},{"bufferView":2,"byteOffset":11544,"componentType":5123,"count":72,"type":"SCALAR"},{"bufferView":2,"byteOffset":11688,"componentType":5123,"count":72,"type":"SCALAR"},{"bufferView":2,"byteOffset":11832,"componentType":5123,"count":78,"type":"SCALAR"},{"bufferView":2,"byteOffset":11988,"componentType":5123,"count":78,"type":"SCALAR"},{"bufferView":2,"byteOffset":12144,"componentType":5123,"count":6,"type":"SCALAR"},{"bufferView":2,"byteOffset":12156,"componentType":5123,"count":6,"type":"SCALAR"},{"bufferView":2,"byteOffset":12168,"componentType":5123,"count":24,"type":"SCALAR"},{"bufferView":2,"byteOffset":12216,"componentType":5123,"count":6,"type":"SCALAR"},{"bufferView":2,"byteOffset":12228,"componentType":5123,"count":6,"type":"SCALAR"},{"bufferView":2,"byteOffset":12240,"componentType":5123,"count":6,"type":"SCALAR"},{"bufferView":2,"byteOffset":12252,"componentType":5123,"count":6,"type":"SCALAR"},{"bufferView":2,"byteOffset":12264,"componentType":5123,"count":6,"type":"SCALAR"},{"bufferView":2,"byteOffset":12276,"componentType":5123,"count":6,"type":"SCALAR"},{"bufferView":2,"byteOffset":12288,"componentType":5123,"count":6,"type":"SCALAR"},{"bufferView":2,"byteOffset":12300,"componentType":5123,"count":6,"type":"SCALAR"}],"asset":{"generator":"Open CASCADE Technology 7.8 [dev.opencascade.org]","version":"2.0"},"bufferViews":[{"buffer":0,"byteLength":27072,"byteOffset":0,"byteStride":12,"target":34962},{"buffer":0,"byteLength":27072,"byteOffset":27072,"byteStride":12,"target":34962},{"buffer":0,"byteLength":12312,"byteOffset":54144,"target":34963}],"buffers":[{"byteLength":66456,"uri":"Sem nome-DMG48270C043-03WN.bin"}],"materials":[{"name":"mat_0","pbrMetallicRoughness":{"baseColorFactor":[0.168269544839859,0.19120186567306519,0.21586069464683533,1.0]},"doubleSided":true}],"meshes":[{"name":"DMG48270C043-03WN","primitives":[{"attributes":{"NORMAL":147,"POSITION":0},"indices":294,"material":0,"mode":4},{"attributes":{"NORMAL":148,"POSITION":1},"indices":295,"material":0,"mode":4},{"attributes":{"NORMAL":149,"POSITION":2},"indices":296,"material":0,"mode":4},{"attributes":{"NORMAL":150,"POSITION":3},"indices":297,"material":0,"mode":4},{"attributes":{"NORMAL":151,"POSITION":4},"indices":298,"material":0,"mode":4},{"attributes":{"NORMAL":152,"POSITION":5},"indices":299,"material":0,"mode":4},{"attributes":{"NORMAL":153,"POSITION":6},"indices":300,"material":0,"mode":4},{"attributes":{"NORMAL":154,"POSITION":7},"indices":301,"material":0,"mode":4},{"attributes":{"NORMAL":155,"POSITION":8},"indices":302,"material":0,"mode":4},{"attributes":{"NORMAL":156,"POSITION":9},"indices":303,"material":0,"mode":4},{"attributes":{"NORMAL":157,"POSITION":10},"indices":304,"material":0,"mode":4},{"attributes":{"NORMAL":158,"POSITION":11},"indices":305,"material":0,"mode":4},{"attributes":{"NORMAL":159,"POSITION":12},"indices":306,"material":0,"mode":4},{"attributes":{"NORMAL":160,"POSITION":13},"indices":307,"material":0,"mode":4},{"attributes":{"NORMAL":161,"POSITION":14},"indices":308,"material":0,"mode":4},{"attributes":{"NORMAL":162,"POSITION":15},"indices":309,"material":0,"mode":4},{"attributes":{"NORMAL":163,"POSITION":16},"indices":310,"material":0,"mode":4},{"attributes":{"NORMAL":164,"POSITION":17},"indices":311,"material":0,"mode":4},{"attributes":{"NORMAL":165,"POSITION":18},"indices":312,"material":0,"mode":4},{"attributes":{"NORMAL":166,"POSITION":19},"indices":313,"material":0,"mode":4},{"attributes":{"NORMAL":167,"POSITION":20},"indices":314,"material":0,"mode":4},{"attributes":{"NORMAL":168,"POSITION":21},"indices":315,"material":0,"mode":4},{"attributes":{"NORMAL":169,"POSITION":22},"indices":316,"material":0,"mode":4},{"attributes":{"NORMAL":170,"POSITION":23},"indices":317,"material":0,"mode":4},{"attributes":{"NORMAL":171,"POSITION":24},"indices":318,"material":0,"mode":4},{"attributes":{"NORMAL":172,"POSITION":25},"indices":319,"material":0,"mode":4},{"attributes":{"NORMAL":173,"POSITION":26},"indices":320,"material":0,"mode":4},{"attributes":{"NORMAL":174,"POSITION":27},"indices":321,"material":0,"mode":4},{"attributes":{"NORMAL":175,"POSITION":28},"indices":322,"material":0,"mode":4},{"attributes":{"NORMAL":176,"POSITION":29},"indices":323,"material":0,"mode":4},{"attributes":{"NORMAL":177,"POSITION":30},"indices":324,"material":0,"mode":4},{"attributes":{"NORMAL":178,"POSITION":31},"indices":325,"material":0,"mode":4},{"attributes":{"NORMAL":179,"POSITION":32},"indices":326,"material":0,"mode":4},{"attributes":{"NORMAL":180,"POSITION":33},"indices":327,"material":0,"mode":4},{"attributes":{"NORMAL":181,"POSITION":34},"indices":328,"material":0,"mode":4},{"attributes":{"NORMAL":182,"POSITION":35},"indices":329,"material":0,"mode":4},{"attributes":{"NORMAL":183,"POSITION":36},"indices":330,"material":0,"mode":4},{"attributes":{"NORMAL":184,"POSITION":37},"indices":331,"material":0,"mode":4},{"attributes":{"NORMAL":185,"POSITION":38},"indices":332,"material":0,"mode":4},{"attributes":{"NORMAL":186,"POSITION":39},"indices":333,"material":0,"mode":4},{"attributes":{"NORMAL":187,"POSITION":40},"indices":334,"material":0,"mode":4},{"attributes":{"NORMAL":188,"POSITION":41},"indices":335,"material":0,"mode":4},{"attributes":{"NORMAL":189,"POSITION":42},"indices":336,"material":0,"mode":4},{"attributes":{"NORMAL":190,"POSITION":43},"indices":337,"material":0,"mode":4},{"attributes":{"NORMAL":191,"POSITION":44},"indices":338,"material":0,"mode":4},{"attributes":{"NORMAL":192,"POSITION":45},"indices":339,"material":0,"mode":4},{"attributes":{"NORMAL":193,"POSITION":46},"indices":340,"material":0,"mode":4},{"attributes":{"NORMAL":194,"POSITION":47},"indices":341,"material":0,"mode":4},{"attributes":{"NORMAL":195,"POSITION":48},"indices":342,"material":0,"mode":4},{"attributes":{"NORMAL":196,"POSITION":49},"indices":343,"material":0,"mode":4},{"attributes":{"NORMAL":197,"POSITION":50},"indices":344,"material":0,"mode":4},{"attributes":{"NORMAL":198,"POSITION":51},"indices":345,"material":0,"mode":4},{"attributes":{"NORMAL":199,"POSITION":52},"indices":346,"material":0,"mode":4},{"attributes":{"NORMAL":200,"POSITION":53},"indices":347,"material":0,"mode":4},{"attributes":{"NORMAL":201,"POSITION":54},"indices":348,"material":0,"mode":4},{"attributes":{"NORMAL":202,"POSITION":55},"indices":349,"material":0,"mode":4},{"attributes":{"NORMAL":203,"POSITION":56},"indices":350,"material":0,"mode":4},{"attributes":{"NORMAL":204,"POSITION":57},"indices":351,"material":0,"mode":4},{"attributes":{"NORMAL":205,"POSITION":58},"indices":352,"material":0,"mode":4},{"attributes":{"NORMAL":206,"POSITION":59},"indices":353,"material":0,"mode":4},{"attributes":{"NORMAL":207,"POSITION":60},"indices":354,"material":0,"mode":4},{"attributes":{"NORMAL":208,"POSITION":61},"indices":355,"material":0,"mode":4},{"attributes":{"NORMAL":209,"POSITION":62},"indices":356,"material":0,"mode":4},{"attributes":{"NORMAL":210,"POSITION":63},"indices":357,"material":0,"mode":4},{"attributes":{"NORMAL":211,"POSITION":64},"indices":358,"material":0,"mode":4},{"attributes":{"NORMAL":212,"POSITION":65},"indices":359,"material":0,"mode":4},{"attributes":{"NORMAL":213,"POSITION":66},"indices":360,"material":0,"mode":4},{"attributes":{"NORMAL":214,"POSITION":67},"indices":361,"material":0,"mode":4},{"attributes":{"NORMAL":215,"POSITION":68},"indices":362,"material":0,"mode":4},{"attributes":{"NORMAL":216,"POSITION":69},"indices":363,"material":0,"mode":4},{"attributes":{"NORMAL":217,"POSITION":70},"indices":364,"material":0,"mode":4},{"attributes":{"NORMAL":218,"POSITION":71},"indices":365,"material":0,"mode":4},{"attributes":{"NORMAL":219,"POSITION":72},"indices":366,"material":0,"mode":4},{"attributes":{"NORMAL":220,"POSITION":73},"indices":367,"material":0,"mode":4},{"attributes":{"NORMAL":221,"POSITION":74},"indices":368,"material":0,"mode":4},{"attributes":{"NORMAL":222,"POSITION":75},"indices":369,"material":0,"mode":4},{"attributes":{"NORMAL":223,"POSITION":76},"indices":370,"material":0,"mode":4},{"attributes":{"NORMAL":224,"POSITION":77},"indices":371,"material":0,"mode":4},{"attributes":{"NORMAL":225,"POSITION":78},"indices":372,"material":0,"mode":4},{"attributes":{"NORMAL":226,"POSITION":79},"indices":373,"material":0,"mode":4},{"attributes":{"NORMAL":227,"POSITION":80},"indices":374,"material":0,"mode":4},{"attributes":{"NORMAL":228,"POSITION":81},"indices":375,"material":0,"mode":4},{"attributes":{"NORMAL":229,"POSITION":82},"indices":376,"material":0,"mode":4},{"attributes":{"NORMAL":230,"POSITION":83},"indices":377,"material":0,"mode":4},{"attributes":{"NORMAL":231,"POSITION":84},"indices":378,"material":0,"mode":4},{"attributes":{"NORMAL":232,"POSITION":85},"indices":379,"material":0,"mode":4},{"attributes":{"NORMAL":233,"POSITION":86},"indices":380,"material":0,"mode":4},{"attributes":{"NORMAL":234,"POSITION":87},"indices":381,"material":0,"mode":4},{"attributes":{"NORMAL":235,"POSITION":88},"indices":382,"material":0,"mode":4},{"attributes":{"NORMAL":236,"POSITION":89},"indices":383,"material":0,"mode":4},{"attributes":{"NORMAL":237,"POSITION":90},"indices":384,"material":0,"mode":4},{"attributes":{"NORMAL":238,"POSITION":91},"indices":385,"material":0,"mode":4},{"attributes":{"NORMAL":239,"POSITION":92},"indices":386,"material":0,"mode":4},{"attributes":{"NORMAL":240,"POSITION":93},"indices":387,"material":0,"mode":4},{"attributes":{"NORMAL":241,"POSITION":94},"indices":388,"material":0,"mode":4},{"attributes":{"NORMAL":242,"POSITION":95},"indices":389,"material":0,"mode":4},{"attributes":{"NORMAL":243,"POSITION":96},"indices":390,"material":0,"mode":4},{"attributes":{"NORMAL":244,"POSITION":97},"indices":391,"material":0,"mode":4},{"attributes":{"NORMAL":245,"POSITION":98},"indices":392,"material":0,"mode":4},{"attributes":{"NORMAL":246,"POSITION":99},"indices":393,"material":0,"mode":4},{"attributes":{"NORMAL":247,"POSITION":100},"indices":394,"material":0,"mode":4},{"attributes":{"NORMAL":248,"POSITION":101},"indices":395,"material":0,"mode":4},{"attributes":{"NORMAL":249,"POSITION":102},"indices":396,"material":0,"mode":4},{"attributes":{"NORMAL":250,"POSITION":103},"indices":397,"material":0,"mode":4},{"attributes":{"NORMAL":251,"POSITION":104},"indices":398,"material":0,"mode":4},{"attributes":{"NORMAL":252,"POSITION":105},"indices":399,"material":0,"mode":4},{"attributes":{"NORMAL":253,"POSITION":106},"indices":400,"material":0,"mode":4},{"attributes":{"NORMAL":254,"POSITION":107},"indices":401,"material":0,"mode":4},{"attributes":{"NORMAL":255,"POSITION":108},"indices":402,"material":0,"mode":4},{"attributes":{"NORMAL":256,"POSITION":109},"indices":403,"material":0,"mode":4},{"attributes":{"NORMAL":257,"POSITION":110},"indices":404,"material":0,"mode":4},{"attributes":{"NORMAL":258,"POSITION":111},"indices":405,"material":0,"mode":4},{"attributes":{"NORMAL":259,"POSITION":112},"indices":406,"material":0,"mode":4},{"attributes":{"NORMAL":260,"POSITION":113},"indices":407,"material":0,"mode":4},{"attributes":{"NORMAL":261,"POSITION":114},"indices":408,"material":0,"mode":4},{"attributes":{"NORMAL":262,"POSITION":115},"indices":409,"material":0,"mode":4},{"attributes":{"NORMAL":263,"POSITION":116},"indices":410,"material":0,"mode":4},{"attributes":{"NORMAL":264,"POSITION":117},"indices":411,"material":0,"mode":4},{"attributes":{"NORMAL":265,"POSITION":118},"indices":412,"material":0,"mode":4},{"attributes":{"NORMAL":266,"POSITION":119},"indices":413,"material":0,"mode":4},{"attributes":{"NORMAL":267,"POSITION":120},"indices":414,"material":0,"mode":4},{"attributes":{"NORMAL":268,"POSITION":121},"indices":415,"material":0,"mode":4},{"attributes":{"NORMAL":269,"POSITION":122},"indices":416,"material":0,"mode":4},{"attributes":{"NORMAL":270,"POSITION":123},"indices":417,"material":0,"mode":4},{"attributes":{"NORMAL":271,"POSITION":124},"indices":418,"material":0,"mode":4},{"attributes":{"NORMAL":272,"POSITION":125},"indices":419,"material":0,"mode":4},{"attributes":{"NORMAL":273,"POSITION":126},"indices":420,"material":0,"mode":4},{"attributes":{"NORMAL":274,"POSITION":127},"indices":421,"material":0,"mode":4},{"attributes":{"NORMAL":275,"POSITION":128},"indices":422,"material":0,"mode":4},{"attributes":{"NORMAL":276,"POSITION":129},"indices":423,"material":0,"mode":4},{"attributes":{"NORMAL":277,"POSITION":130},"indices":424,"material":0,"mode":4},{"attributes":{"NORMAL":278,"POSITION":131},"indices":425,"material":0,"mode":4},{"attributes":{"NORMAL":279,"POSITION":132},"indices":426,"material":0,"mode":4},{"attributes":{"NORMAL":280,"POSITION":133},"indices":427,"material":0,"mode":4},{"attributes":{"NORMAL":281,"POSITION":134},"indices":428,"material":0,"mode":4},{"attributes":{"NORMAL":282,"POSITION":135},"indices":429,"material":0,"mode":4},{"attributes":{"NORMAL":283,"POSITION":136},"indices":430,"material":0,"mode":4},{"attributes":{"NORMAL":284,"POSITION":137},"indices":431,"material":0,"mode":4},{"attributes":{"NORMAL":285,"POSITION":138},"indices":432,"material":0,"mode":4},{"attributes":{"NORMAL":286,"POSITION":139},"indices":433,"material":0,"mode":4},{"attributes":{"NORMAL":287,"POSITION":140},"indices":434,"material":0,"mode":4},{"attributes":{"NORMAL":288,"POSITION":141},"indices":435,"material":0,"mode":4},{"attributes":{"NORMAL":289,"POSITION":142},"indices":436,"material":0,"mode":4},{"attributes":{"NORMAL":290,"POSITION":143},"indices":437,"material":0,"mode":4},{"attributes":{"NORMAL":291,"POSITION":144},"indices":438,"material":0,"mode":4},{"attributes":{"NORMAL":292,"POSITION":145},"indices":439,"material":0,"mode":4},{"attributes":{"NORMAL":293,"POSITION":146},"indices":440,"material":0,"mode":4}]}],"nodes":[{"mesh":0,"name":"DMG48270C043-03WN"}],"scene":0,"scenes":[{"nodes":[0]}]}